<svg width="428" height="734" viewBox="0 0 428 734" fill="none" xmlns="http://www.w3.org/2000/svg">
<g opacity="0.4">
<path opacity="0.0526316" d="M453.41 471.334C461.281 452.853 465.264 406.012 418.224 366.493C359.424 317.094 285.269 327.673 221.844 289.903C175.033 262.026 76.5699 171.344 78.0489 85.6587" stroke="#E7E7E7" stroke-width="3"/>
<path opacity="0.105263" d="M430.21 498.475C439.97 480.918 448.827 434.749 406.175 390.53C352.861 335.256 278.006 338.026 218.877 293.833C175.236 261.215 86.7915 160.738 97.219 75.6764" stroke="#E7E7E7" stroke-width="3"/>
<path opacity="0.157895" d="M405.161 523.321C416.703 506.881 430.337 461.891 392.542 413.456C345.297 352.912 270.563 347.841 216.378 297.71C176.385 260.709 98.9275 151.538 118.189 68.032" stroke="#E7E7E7" stroke-width="3"/>
<path opacity="0.210526" d="M378.514 545.693C391.711 530.549 409.973 487.231 377.447 435.111C336.79 369.96 262.995 357.105 214.347 301.585C178.441 260.606 112.819 143.936 140.704 62.9016" stroke="#E7E7E7" stroke-width="3"/>
<path opacity="0.263158" d="M350.535 565.437C365.242 551.756 387.932 510.584 361.033 455.349C327.409 386.305 255.362 365.808 212.783 305.506C181.357 260.999 128.291 138.108 164.493 60.4324" stroke="#E7E7E7" stroke-width="3"/>
<path opacity="0.315789" d="M321.506 582.428C337.563 570.358 364.433 531.784 343.454 474.04C317.231 401.859 247.721 373.943 211.68 309.521C185.078 261.973 145.148 134.209 189.271 60.7427" stroke="#E7E7E7" stroke-width="3"/>
<path opacity="0.368421" d="M291.722 596.571C308.952 586.247 339.707 550.692 324.879 491.071C306.345 416.546 240.134 381.517 211.023 313.68C189.538 263.612 163.181 132.374 214.742 63.922" stroke="#E7E7E7" stroke-width="3"/>
<path opacity="0.421053" d="M261.483 607.803C279.699 599.336 314.001 567.191 305.487 506.347C294.844 430.292 232.657 388.534 210.797 318.026C194.663 265.987 182.168 132.712 240.602 70.0253" stroke="#E7E7E7" stroke-width="3"/>
<path opacity="0.473684" d="M231.097 616.093C250.098 609.576 287.573 581.193 285.465 519.792C282.83 443.041 225.349 395.012 210.979 322.605C200.372 269.164 201.878 135.314 266.544 79.0783" stroke="#E7E7E7" stroke-width="3"/>
<path opacity="0.526316" d="M200.873 621.441C220.45 616.946 260.687 592.636 265.009 531.351C270.411 454.745 218.265 400.97 211.542 327.458C206.58 273.201 222.068 140.242 292.259 91.0736" stroke="#E7E7E7" stroke-width="3"/>
<path opacity="0.578947" d="M171.115 623.881C191.055 621.457 233.612 601.485 244.317 540.988C257.697 465.367 211.458 406.436 212.456 332.624C213.192 278.145 242.493 147.533 317.439 105.971" stroke="#E7E7E7" stroke-width="3"/>
<path opacity="0.631579" d="M142.127 623.475C162.212 623.149 206.623 607.735 223.592 548.688C244.804 474.88 204.978 411.438 213.686 338.135C220.113 284.031 262.906 157.198 341.786 123.697" stroke="#E7E7E7" stroke-width="3"/>
<path opacity="0.684211" d="M114.202 620.322C134.21 622.097 179.989 611.41 203.038 554.46C231.848 483.273 198.872 416.016 215.194 344.025C227.242 290.89 283.058 169.224 365.007 144.152" stroke="#E7E7E7" stroke-width="3"/>
<path opacity="0.736842" d="M87.6187 614.547C107.332 618.404 153.978 612.56 182.853 558.332C218.947 490.547 193.181 420.211 216.939 350.32C234.475 298.735 302.703 183.57 386.824 167.202" stroke="#E7E7E7" stroke-width="3"/>
<path opacity="0.789474" d="M62.6473 606.305C81.8496 612.201 128.85 611.266 163.236 560.353C206.217 496.711 187.945 424.068 218.879 357.043C241.71 307.574 321.603 200.172 406.974 192.686" stroke="#E7E7E7" stroke-width="3"/>
<path opacity="0.842105" d="M39.5345 595.778C58.0153 603.649 104.856 607.631 144.375 560.592C193.774 501.792 183.195 427.636 220.965 364.212C248.842 317.4 339.524 218.938 425.209 220.417" stroke="#E7E7E7" stroke-width="3"/>
<path opacity="0.894737" d="M18.5101 583.171C36.0669 592.931 82.2352 601.788 126.454 559.137C181.729 505.822 178.959 430.967 223.152 371.839C255.77 328.198 356.247 239.753 441.308 250.18" stroke="#E7E7E7" stroke-width="3"/>
<path opacity="0.947368" d="M-0.220041 568.716C16.2203 580.258 61.21 593.892 109.645 556.097C170.189 508.852 175.26 434.118 225.391 379.933C262.392 339.94 371.563 262.482 455.069 281.744" stroke="#E7E7E7" stroke-width="3"/>
<path d="M-16.476 552.663C-1.33211 565.86 41.9859 584.122 94.1066 551.596C159.258 510.939 172.112 437.144 227.632 388.496C268.611 352.59 385.281 286.968 466.316 314.853" stroke="#E7E7E7" stroke-width="3"/>
</g>
</svg>
