<svg width="14" height="10" viewBox="0 0 14 10" fill="none" xmlns="http://www.w3.org/2000/svg">
<path d="M6.99997 0.333344C9.50247 0.333344 11.5867 1.75026 13.2212 4.50651L13.3496 4.72759L13.3758 4.78593L13.3933 4.83434L13.4015 4.86643L13.4096 4.91426L13.4161 4.97259V5.03676L13.4079 5.10151C13.4041 5.12317 13.399 5.14459 13.3927 5.16568L13.37 5.22868L13.349 5.27243L13.3396 5.28993C11.7273 8.11093 9.66464 9.59493 7.18256 9.66434L6.99997 9.66668C4.43564 9.66668 2.31172 8.17976 0.660308 5.28934C0.609972 5.20122 0.583496 5.10149 0.583496 5.00001C0.583496 4.89853 0.609972 4.7988 0.660308 4.71068C2.31172 1.82026 4.43564 0.333344 6.99997 0.333344ZM6.99997 3.25001C6.53585 3.25001 6.09073 3.43438 5.76254 3.76257C5.43435 4.09076 5.24997 4.53588 5.24997 5.00001C5.24997 5.46414 5.43435 5.90926 5.76254 6.23745C6.09073 6.56564 6.53585 6.75001 6.99997 6.75001C7.4641 6.75001 7.90922 6.56564 8.23741 6.23745C8.5656 5.90926 8.74997 5.46414 8.74997 5.00001C8.74997 4.53588 8.5656 4.09076 8.23741 3.76257C7.90922 3.43438 7.4641 3.25001 6.99997 3.25001Z" fill="#ABB0B6"/>
</svg>
